<svg xmlns="http://www.w3.org/2000/svg" viewBox="0 0 512 512"><defs><style>.cls-1{fill:#bee4fa;}.cls-2{fill:#203857;}.cls-3{fill:#2da05f;}.cls-4{fill:#f5f6f7;}</style></defs><g id="Layer_2" data-name="Layer 2"><g id="Layer_1-2" data-name="Layer 1"><rect class="cls-1" width="512" height="512" rx="70.94"/><path class="cls-2" d="M160.68,206v95.83c0,7.73-.07,15.46,0,23.18,0,2.78-.38,4.4-3.76,4.84-33.1,4.23-64.29,15.47-95.6,26.27-1.68.58-3.38,1.64-6.06.79A56.65,56.65,0,0,1,78,342.17c7.84-2.67,9.3-7.19,9.22-14.61-.36-30.91-.13-61.83-.21-92.75,0-3.85.72-6.6,4.63-8.65q31.78-16.6,63.28-33.79c3.7-2,6.73-2.12,10.51-.18,4.41,2.27,8.56,5.46,13.88,5.54.14-4.88.38-9.75.39-14.63,0-14.7.08-29.41,0-44.11,0-2.73.69-4.37,3.19-5.83q33.22-19.3,66.25-38.93c2.61-1.55,4.84-1.28,7.39,0,26.48,13.11,53,26.25,79.55,39.13,3.34,1.61,3.53,3.79,3.51,6.71q-.18,33.36-.27,66.73c0,6.23.69,7.06,5.63,3.15,9.59-7.58,17.86-5.58,27.63,0,16.84,9.58,34.36,18,51.73,26.6,3.6,1.79,4.88,3.93,4.73,7.81-.26,6.59-.32,13.21,0,19.78.24,4.21-1.2,6.7-5,8.25-2.74,1.11-5.31,2.63-9.12,4.55,0-8.74-.26-16.7.11-24.62.18-3.86-1.27-5.8-4.5-7.4-15.69-7.79-31.36-15.63-46.92-23.69-3.92-2-4.88-1.65-4.85,2.95.19,27.15,0,54.29.23,81.44,0,4.11-1.25,6.34-4.85,8.39-9.3,5.28-18.29,11.09-28.23,17.2-.13-2.73-.3-4.68-.31-6.62-.05-58.06-.15-116.12,0-174.18,0-5.29-1.78-8-6.44-10.16-21.73-10.32-43.31-21-65.91-32,0,3,0,5.18,0,7.33q0,106,.08,212.08c0,5.09-.65,6.63-6.32,5.31a230.19,230.19,0,0,0-61.2-5.72c-4.83.18-6.36-.9-6.32-6.07.21-33.74,0-67.48.1-101.22,0-4.24-1.16-6.58-5.15-8C169.84,210.39,165.92,207.17,160.68,206ZM227.47,169c-.09-17.37-.07-17.31-15.25-10.4-2.06.94-2.8,2-2.77,4.15q.17,11.81,0,23.63c0,2.51.4,3.2,3.16,2.53,14.93-3.63,14.95-3.55,14.86-18.79C227.48,169.7,227.48,169.32,227.47,169Zm-17.9,62.45h-.21c0,3.76.11,7.53,0,11.29-.1,2.61.68,3.42,3.26,2.45,3.87-1.46,7.75-2.91,11.74-4,2.49-.68,3.22-1.94,3.18-4.38-.11-7.72-.15-15.43,0-23.15.07-3.11-1-3.29-3.64-2.58-14.24,3.75-14.26,3.69-14.32,18.11Zm-94.41,83.47c5.51-1.45,10.56-2.66,15.53-4.14A3.49,3.49,0,0,0,133.3,307c-.15-7.1-.06-14.21-.06-21.95-5.73,1.87-10.81,3.56-15.91,5.17-2.11.67-2.18,2.26-2.18,4C115.17,300.77,115.16,307.34,115.16,314.87Zm0-43.31c5.35-1.9,10.26-3.75,15.24-5.37,2.21-.71,2.82-2,2.77-4.16q-.19-9,0-18.08c.05-2.79-.88-3.23-3.32-2.19-4,1.7-8,3.31-12.11,4.7-2,.68-2.57,1.81-2.56,3.73C115.24,257.13,115.2,264.08,115.2,271.56Z"/><path class="cls-3" d="M60.4,375.19c7.61-6.05,16.34-10,25-13.8,38.66-16.94,79.24-23.8,121.26-21.56,29.66,1.59,58,9.31,84.85,21.82,5.06,2.35,8.65,2.32,13.32-.69,35-22.55,70.07-45,106.06-66,15.3-8.92,30.89-17.34,47.27-24.2a53.2,53.2,0,0,1,19.39-4.57c-.33.89-.37,1.61-.72,1.82-24.33,15.27-43.85,36.14-64.69,55.46-19.49,18.06-38.33,36.83-58.24,54.4-15.95,14.06-30.51,29.52-46.32,43.69-6.48,5.81-6.36,6-13.58,1a315,315,0,0,0-91.25-43.9,275.46,275.46,0,0,0-104-9.61A327,327,0,0,0,60.4,375.19Z"/><path class="cls-2" d="M278.28,168.76c0-4.14.11-8.29,0-12.43-.1-2.84,1.12-3.24,3.41-2.3q.52.21,1,.39c14.77,5.36,14.77,5.36,14.72,21.18,0,3.58-.3,7.17,0,10.72.35,4.2-1.28,4-4.5,2.94C278.36,184.39,278.33,184.47,278.28,168.76Z"/><path class="cls-2" d="M278.2,209.23c6.27,2.32,11.49,4.36,16.79,6.14,2,.67,2.49,1.74,2.45,3.7-.14,7.89-.27,15.78-.14,23.67.06,3.51-1.34,3.78-4,2.57a4.81,4.81,0,0,0-.53-.2c-14.55-4.66-14.56-4.66-14.57-19.9C278.19,220.15,278.2,215.09,278.2,209.23Z"/><path class="cls-2" d="M397,283c-5.72-2.46-10.47-4.64-15.33-6.54-1.88-.73-2.63-1.73-2.61-3.7.05-5.06,0-10.13,0-15.19,0-2.61,0-5.22,0-8.77,5.74,2.5,10.8,4.79,15.94,6.89,2,.84,2.08,2.35,2.07,4.09C397,267.28,397,274.77,397,283Z"/><path class="cls-4" d="M227.48,169v1.12c.09,15.24.07,15.16-14.86,18.79-2.76.67-3.2,0-3.16-2.53q.16-11.82,0-23.63c0-2.19.71-3.21,2.77-4.15C227.4,151.64,227.38,151.58,227.48,169Z"/><path class="cls-4" d="M209.57,231.4v-2.26c.06-14.42.08-14.36,14.32-18.11,2.67-.71,3.71-.53,3.64,2.58-.18,7.72-.14,15.43,0,23.15,0,2.44-.69,3.7-3.18,4.38-4,1.09-7.87,2.54-11.74,4-2.58,1-3.36.16-3.26-2.45.15-3.76,0-7.53,0-11.29Z"/><path class="cls-4" d="M115.16,314.87c0-7.53,0-14.1,0-20.67,0-1.76.07-3.35,2.18-4,5.1-1.61,10.18-3.3,15.91-5.17,0,7.74-.09,14.85.06,21.95a3.49,3.49,0,0,1-2.61,3.77C125.72,312.21,120.67,313.42,115.16,314.87Z"/><path class="cls-4" d="M115.2,271.56c0-7.48,0-14.43,0-21.37,0-1.92.57-3.05,2.56-3.73,4.1-1.39,8.13-3,12.11-4.7,2.44-1,3.37-.6,3.32,2.19q-.16,9,0,18.08c0,2.19-.56,3.45-2.77,4.16C125.46,267.81,120.55,269.66,115.2,271.56Z"/></g></g></svg>