<svg xmlns="http://www.w3.org/2000/svg" viewBox="0 0 1200 630">
  <defs>
    <style>
      .bg { fill: #f0f9ff; }
      .accent { fill: #bee4fa; }
      .dark { fill: #203857; }
      .green { fill: #2da05f; }
    </style>
    <linearGradient id="bgGrad" x1="0%" y1="0%" x2="100%" y2="100%">
      <stop offset="0%" style="stop-color:#f0f9ff"/>
      <stop offset="100%" style="stop-color:#bee4fa"/>
    </linearGradient>
  </defs>

  <!-- Background -->
  <rect width="1200" height="630" fill="url(#bgGrad)"/>

  <!-- Decorative circles -->
  <circle cx="100" cy="100" r="150" fill="#bee4fa" opacity="0.3"/>
  <circle cx="1100" cy="530" r="200" fill="#bee4fa" opacity="0.3"/>
  <circle cx="900" cy="80" r="100" fill="#2da05f" opacity="0.1"/>

  <!-- Logo container -->
  <g transform="translate(500, 140)">
    <!-- Logo background -->
    <rect class="accent" width="200" height="200" rx="28"/>

    <!-- Building icon (simplified from original) -->
    <g transform="translate(40, 35) scale(0.24)">
      <path class="dark" d="M160.68,206v95.83c0,7.73-.07,15.46,0,23.18,0,2.78-.38,4.4-3.76,4.84-33.1,4.23-64.29,15.47-95.6,26.27-1.68.58-3.38,1.64-6.06.79A56.65,56.65,0,0,1,78,342.17c7.84-2.67,9.3-7.19,9.22-14.61-.36-30.91-.13-61.83-.21-92.75,0-3.85.72-6.6,4.63-8.65q31.78-16.6,63.28-33.79c3.7-2,6.73-2.12,10.51-.18,4.41,2.27,8.56,5.46,13.88,5.54.14-4.88.38-9.75.39-14.63,0-14.7.08-29.41,0-44.11,0-2.73.69-4.37,3.19-5.83q33.22-19.3,66.25-38.93c2.61-1.55,4.84-1.28,7.39,0,26.48,13.11,53,26.25,79.55,39.13,3.34,1.61,3.53,3.79,3.51,6.71q-.18,33.36-.27,66.73c0,6.23.69,7.06,5.63,3.15,9.59-7.58,17.86-5.58,27.63,0,16.84,9.58,34.36,18,51.73,26.6,3.6,1.79,4.88,3.93,4.73,7.81-.26,6.59-.32,13.21,0,19.78.24,4.21-1.2,6.7-5,8.25-2.74,1.11-5.31,2.63-9.12,4.55,0-8.74-.26-16.7.11-24.62.18-3.86-1.27-5.8-4.5-7.4-15.69-7.79-31.36-15.63-46.92-23.69-3.92-2-4.88-1.65-4.85,2.95.19,27.15,0,54.29.23,81.44,0,4.11-1.25,6.34-4.85,8.39-9.3,5.28-18.29,11.09-28.23,17.2-.13-2.73-.3-4.68-.31-6.62-.05-58.06-.15-116.12,0-174.18,0-5.29-1.78-8-6.44-10.16-21.73-10.32-43.31-21-65.91-32,0,3,0,5.18,0,7.33q0,106,.08,212.08c0,5.09-.65,6.63-6.32,5.31a230.19,230.19,0,0,0-61.2-5.72c-4.83.18-6.36-.9-6.32-6.07.21-33.74,0-67.48.1-101.22,0-4.24-1.16-6.58-5.15-8C169.84,210.39,165.92,207.17,160.68,206Z"/>
      <path class="green" d="M60.4,375.19c7.61-6.05,16.34-10,25-13.8,38.66-16.94,79.24-23.8,121.26-21.56,29.66,1.59,58,9.31,84.85,21.82,5.06,2.35,8.65,2.32,13.32-.69,35-22.55,70.07-45,106.06-66,15.3-8.92,30.89-17.34,47.27-24.2a53.2,53.2,0,0,1,19.39-4.57c-.33.89-.37,1.61-.72,1.82-24.33,15.27-43.85,36.14-64.69,55.46-19.49,18.06-38.33,36.83-58.24,54.4-15.95,14.06-30.51,29.52-46.32,43.69-6.48,5.81-6.36,6-13.58,1a315,315,0,0,0-91.25-43.9,275.46,275.46,0,0,0-104-9.61A327,327,0,0,0,60.4,375.19Z"/>
    </g>
  </g>

  <!-- Title -->
  <text x="600" y="400" text-anchor="middle" font-family="Arial, sans-serif" font-size="72" font-weight="bold" fill="#203857">
    ועד בית
  </text>

  <!-- Subtitle -->
  <text x="600" y="470" text-anchor="middle" font-family="Arial, sans-serif" font-size="32" fill="#203857" opacity="0.8">
    מערכת ניהול ועד בית חינמית
  </text>

  <!-- Features line -->
  <text x="600" y="530" text-anchor="middle" font-family="Arial, sans-serif" font-size="24" fill="#2da05f">
    תשלומים | דיירים | הודעות | מסמכים
  </text>

  <!-- Bottom accent line -->
  <rect x="0" y="610" width="1200" height="20" fill="#203857"/>
</svg>
